# This file uses centimeters as units for non-parametric coordinates.

mtllib mirror.mtl
v -5.127843 -7.280520 0.500000
v -4.127843 -7.280520 0.500000
v -5.127843 7.280520 0.500000
v -4.127843 7.280520 0.500000
v -5.127843 7.280520 -0.500000
v -4.127843 7.280520 -0.500000
v -5.127843 -7.280520 -0.500000
v -4.127843 -7.280520 -0.500000
v -5.127843 8.418029 0.500000
v -4.127843 8.418029 0.500000
v -4.127843 8.418029 -0.500000
v -5.127843 8.418029 -0.500000
v -5.127843 -8.418029 -0.500000
v -4.127843 -8.418029 -0.500000
v -4.127843 -8.418029 0.500000
v -5.127843 -8.418029 0.500000
v 4.137790 7.280520 0.500000
v 4.137790 7.280520 -0.500000
v 4.137790 8.418029 -0.500000
v 4.137790 8.418029 0.500000
v 4.137790 -7.285720 -0.500000
v 4.137790 -7.285720 0.500000
v 4.137790 -8.418029 0.500000
v 4.137790 -8.418029 -0.500000
v 5.424574 7.280520 0.500000
v 5.424574 7.280520 -0.500000
v 5.424574 8.418029 -0.500000
v 5.424574 8.418029 0.500000
v 5.424574 -7.285720 -0.500000
v 5.424574 -7.285720 0.500002
v 5.424574 -8.418029 0.500000
v 5.424574 -8.418029 -0.500000
v 0.004973 8.418029 -0.500000
vt 0.375000 0.000000
vt 0.625000 0.000000
vt 0.375000 0.250000
vt 0.625000 0.250000
vt 0.375000 0.500000
vt 0.625000 0.500000
vt 0.375000 0.750000
vt 0.625000 0.750000
vt 0.375000 1.000000
vt 0.625000 1.000000
vt 0.875000 0.000000
vt 0.875000 0.250000
vt 0.125000 0.000000
vt 0.125000 0.250000
vt 0.375000 0.250000
vt 0.625000 0.250000
vt 0.625000 0.500000
vt 0.375000 0.500000
vt 0.375000 0.750000
vt 0.625000 0.750000
vt 0.625000 1.000000
vt 0.375000 1.000000
vt 0.625000 0.250000
vt 0.625000 0.500000
vt 0.625000 0.500000
vt 0.625000 0.250000
vt 0.625000 0.750000
vt 0.625000 1.000000
vt 0.625000 1.000000
vt 0.625000 0.750000
vt 0.625000 0.250000
vt 0.625000 0.500000
vt 0.625000 0.500000
vt 0.625000 0.250000
vt 0.625000 0.750000
vt 0.625000 1.000000
vt 0.625000 1.000000
vt 0.625000 0.750000
vt 0.625000 0.250000
vt 0.625000 0.500000
vt 0.625000 0.500000
vt 0.625000 0.250000
vt 0.625000 0.500000
vn 0.000000 0.000000 1.000000
vn -0.000000 0.000000 1.000000
vn 0.000000 0.000000 1.000000
vn 0.000000 0.000000 1.000000
vn 0.000000 1.000000 0.000000
vn 0.000000 1.000000 0.000000
vn 0.000000 1.000000 0.000000
vn 0.000000 1.000000 0.000000
vn 0.000000 0.000000 -1.000000
vn 0.000000 -0.000000 -1.000000
vn 0.000000 0.000000 -1.000000
vn 0.000000 0.000000 -1.000000
vn 0.000000 -1.000000 0.000000
vn 0.000000 -1.000000 0.000000
vn 0.000000 -1.000000 0.000000
vn 0.000000 -1.000000 0.000000
vn 1.000000 0.000000 0.000000
vn 1.000000 0.000000 0.000000
vn 1.000000 0.000000 0.000000
vn 1.000000 0.000000 0.000000
vn -1.000000 0.000000 0.000000
vn -1.000000 0.000000 0.000000
vn -1.000000 0.000000 0.000000
vn -1.000000 0.000000 0.000000
vn 0.000000 0.000000 1.000000
vn 0.000000 0.000000 1.000000
vn 1.000000 0.000000 0.000000
vn 1.000000 0.000000 0.000000
vn 1.000000 0.000000 0.000000
vn 1.000000 0.000000 0.000000
vn 0.000000 0.000000 -1.000000
vn 0.000000 -0.000000 -1.000000
vn -1.000000 0.000000 0.000000
vn -1.000000 0.000000 0.000000
vn 0.000000 0.000000 -1.000000
vn 0.000000 0.000000 -1.000000
vn 1.000000 0.000000 0.000000
vn 1.000000 0.000000 0.000000
vn 1.000000 0.000000 0.000000
vn 1.000000 0.000000 0.000000
vn 0.000000 0.000000 1.000000
vn -0.000000 0.000000 1.000000
vn -1.000000 0.000000 0.000000
vn -1.000000 0.000000 0.000000
vn 0.000000 -1.000000 0.000000
vn 0.000000 -1.000000 0.000000
vn 0.000000 -1.000000 0.000000
vn 0.000000 -1.000000 0.000000
vn 0.000000 -0.000000 -1.000000
vn 0.000000 -0.000000 -1.000000
vn 0.000000 -0.000000 -1.000000
vn 0.000000 1.000000 0.000000
vn 0.000000 1.000000 0.000000
vn 0.000000 1.000000 0.000000
vn -0.000000 0.000000 1.000000
vn 0.000000 0.000000 1.000000
vn 0.000629 1.000000 0.000000
vn 0.000629 1.000000 0.000000
vn 0.000629 1.000000 0.000000
vn 0.000629 1.000000 0.000000
vn -0.000000 -0.000000 1.000000
vn -0.000000 -0.000000 1.000000
vn 0.000000 -1.000000 0.000000
vn 0.000000 -1.000000 0.000000
vn 0.000000 0.000000 -1.000000
vn 0.000000 0.000000 -1.000000
vn 0.000000 -1.000000 0.000000
vn 0.000000 -1.000000 0.000000
vn 0.000000 -1.000000 0.000000
vn 0.000000 -1.000000 0.000000
vn 0.000000 0.000000 -1.000000
vn 0.000000 0.000000 -1.000000
vn 0.000000 1.000000 0.000000
vn 0.000000 1.000000 0.000000
vn -0.000000 0.000000 1.000000
vn 0.000000 0.000000 1.000000
vn 0.000000 1.000000 0.000000
vn 0.000000 1.000000 0.000000
vn 0.000000 1.000000 0.000000
vn 0.000000 1.000000 0.000000
vn -0.000001 -0.000001 1.000000
vn -0.000001 -0.000001 1.000000
vn 0.000000 -1.000000 0.000000
vn 0.000000 -1.000000 0.000000
vn 0.000000 0.000000 -1.000000
vn 0.000000 0.000000 -1.000000
vn -1.000000 0.000000 0.000000
vn -1.000000 0.000000 0.000000
vn -1.000000 0.000000 0.000000
vn -1.000000 0.000000 0.000000
vn 0.000000 0.000000 -1.000000
vn 0.000000 0.000000 -1.000000
vn 1.000000 0.000000 0.000000
vn 1.000000 0.000000 0.000000
vn -0.000001 0.000000 1.000000
vn -0.000001 0.000000 1.000000
g pCube1
usemtl phong1SG
f 1/1/1 2/2/2 4/4/3 3/3/4
f 9/15/5 10/16/6 11/17/7 12/18/8
f 5/5/9 6/6/10 8/8/11 7/7/12
f 13/19/13 14/20/14 15/21/15 16/22/16
f 2/2/17 8/11/18 6/12/19 4/4/20
f 7/13/21 1/1/22 3/3/23 5/14/24
f 3/3/4 4/4/3 10/16/25 9/15/26
f 25/31/27 26/32/28 27/33/29 28/34/30
f 6/6/10 5/5/9 12/18/31 11/17/32
f 5/5/24 3/3/23 9/15/33 12/18/34
f 7/7/12 8/8/11 14/20/35 13/19/36
f 29/35/37 30/36/38 31/37/39 32/38/40
f 2/10/2 1/9/1 16/22/41 15/21/42
f 1/9/22 7/7/21 13/19/43 16/22/44
f 4/4/45 6/6/46 18/24/47 17/23/48
f 6/6/10 11/17/32 33/43/49 19/25/50 18/24/51
f 11/17/7 10/16/6 20/26/52 19/25/53 33/43/54
f 10/16/25 4/4/3 17/23/55 20/26/56
f 8/8/57 2/10/58 22/28/59 21/27/60
f 2/10/2 15/21/42 23/29/61 22/28/62
f 15/21/15 14/20/14 24/30/63 23/29/64
f 14/20/35 8/8/11 21/27/65 24/30/66
f 22/39/67 21/40/68 29/41/69 30/42/70
f 18/24/51 19/25/50 27/33/71 26/32/72
f 19/25/53 20/26/52 28/34/73 27/33/74
f 20/26/56 17/23/55 25/31/75 28/34/76
f 21/27/77 22/28/78 30/36/79 29/35/80
f 22/28/62 23/29/61 31/37/81 30/36/82
f 23/29/64 24/30/63 32/38/83 31/37/84
f 24/30/66 21/27/65 29/35/85 32/38/86
f 17/23/87 18/24/88 21/40/89 22/39/90
f 18/24/51 26/32/72 29/41/91 21/40/92
f 26/32/28 25/31/27 30/42/93 29/41/94
f 25/31/75 17/23/55 22/39/95 30/42/96
v -4.506765 -7.490855 0.000000
v 4.506765 -7.490855 0.000000
v -4.506765 7.490855 -0.000000
v 4.506765 7.490855 -0.000000
vt 0.000000 0.000000
vt 1.000000 0.000000
vt 0.000000 1.000000
vt 1.000000 1.000000
vn 0.000000 0.000000 1.000000
vn 0.000000 0.000000 1.000000
vn 0.000000 0.000000 1.000000
vn 0.000000 0.000000 1.000000
g pPlane1
usemtl phong2SG
f 34/44/97 35/45/98 37/47/99 36/46/100
