# This file uses centimeters as units for non-parametric coordinates.

mtllib room.mtl
v -53.138863 -12.614978 8.250993
v 53.138863 -12.614978 8.250993
v -53.138863 41.484891 8.250993
v 53.138863 41.484891 8.250993
v -53.138863 41.484891 7.250993
v 53.138863 41.484891 7.250993
v -53.138863 -12.614978 7.250993
v 53.138863 -12.614978 7.250993
vt 0.375000 0.000000
vt 0.375000 0.250000
vt 0.625000 0.250000
vt 0.375000 0.500000
vt 0.625000 0.500000
vt 0.375000 0.750000
vt 0.625000 0.750000
vt 0.375000 1.000000
vt 0.625000 1.000000
vt 0.125000 0.000000
vt 0.125000 0.250000
vn 0.000000 1.000000 0.000000
vn 0.000000 1.000000 0.000000
vn 0.000000 1.000000 0.000000
vn 0.000000 1.000000 0.000000
vn 0.000000 -1.000000 0.000000
vn 0.000000 -1.000000 0.000000
vn 0.000000 -1.000000 0.000000
vn 0.000000 -1.000000 0.000000
vn -1.000000 0.000000 0.000000
vn -1.000000 0.000000 0.000000
vn -1.000000 0.000000 0.000000
vn -1.000000 0.000000 0.000000
g pCube1
usemtl lambert4SG
f 3/2/1 4/3/2 6/5/3 5/4/4
f 7/6/5 8/7/6 2/9/7 1/8/8
f 7/10/9 1/1/10 3/2/11 5/11/12
v -53.138863 -12.614978 -110.690280
v 53.138863 -12.614978 -110.690280
v -53.138863 41.484891 -110.690280
v 53.138863 41.484891 -110.690280
v -53.138863 41.484891 -111.690280
v 53.138863 41.484891 -111.690280
v -53.138863 -12.614978 -111.690280
v 53.138863 -12.614978 -111.690280
vt 0.375000 0.000000
vt 0.375000 0.250000
vt 0.625000 0.250000
vt 0.375000 0.500000
vt 0.625000 0.500000
vt 0.375000 0.750000
vt 0.625000 0.750000
vt 0.375000 1.000000
vt 0.625000 1.000000
vt 0.125000 0.000000
vt 0.125000 0.250000
vn 0.000000 1.000000 0.000000
vn 0.000000 1.000000 0.000000
vn 0.000000 1.000000 0.000000
vn 0.000000 1.000000 0.000000
vn 0.000000 -1.000000 0.000000
vn 0.000000 -1.000000 0.000000
vn 0.000000 -1.000000 0.000000
vn 0.000000 -1.000000 0.000000
vn -1.000000 0.000000 0.000000
vn -1.000000 0.000000 0.000000
vn -1.000000 0.000000 0.000000
vn -1.000000 0.000000 0.000000
g pCube2
usemtl lambert4SG
f 11/13/13 12/14/14 14/16/15 13/15/16
f 15/17/17 16/18/18 10/20/19 9/19/20
f 15/21/21 9/12/22 11/13/23 13/22/24
v -63.660216 -12.614978 19.452634
v -51.896371 -12.614978 19.452634
v -63.660216 41.484891 19.452634
v -51.896371 41.484891 19.452634
v -63.660216 41.484891 -115.974566
v -51.896371 41.484891 -115.974566
v -63.660216 -12.614978 -115.974566
v -51.896371 -12.614978 -115.974566
vt 4.515281 -3.949586
vt 5.280736 -3.949586
vt 5.280736 -0.429393
vt 4.515281 -0.429393
vt -4.326594 -3.949585
vt -3.561140 -3.949585
vt -3.561140 4.862449
vt -4.326594 4.862449
vt 4.561140 -0.390710
vt 5.326594 -0.390710
vt 5.326594 3.129483
vt 4.561140 3.129483
vt -3.493596 -3.949586
vt -2.728141 -3.949586
vt -2.728141 4.862448
vt -3.493596 4.862448
vt -2.662485 4.862448
vt -2.662485 -3.949586
vt 0.857707 -3.949586
vt 0.857707 4.862448
vt 0.926398 4.862448
vt 0.926398 -3.949586
vt 4.446591 -3.949586
vt 4.446591 4.862448
vn 0.000000 0.000000 1.000000
vn 0.000000 0.000000 1.000000
vn 0.000000 0.000000 1.000000
vn 0.000000 0.000000 1.000000
vn 0.000000 1.000000 0.000000
vn 0.000000 1.000000 0.000000
vn 0.000000 1.000000 0.000000
vn 0.000000 1.000000 0.000000
vn 0.000000 0.000000 -1.000000
vn 0.000000 0.000000 -1.000000
vn 0.000000 0.000000 -1.000000
vn 0.000000 0.000000 -1.000000
vn 0.000000 -1.000000 0.000000
vn 0.000000 -1.000000 0.000000
vn 0.000000 -1.000000 0.000000
vn 0.000000 -1.000000 0.000000
vn 1.000000 0.000000 0.000000
vn 1.000000 0.000000 0.000000
vn 1.000000 0.000000 0.000000
vn 1.000000 0.000000 0.000000
vn -1.000000 0.000000 0.000000
vn -1.000000 0.000000 0.000000
vn -1.000000 0.000000 0.000000
vn -1.000000 0.000000 0.000000
g pCube4
usemtl lambert4SG
f 17/23/25 18/24/26 20/25/27 19/26/28
f 19/27/29 20/28/30 22/29/31 21/30/32
f 21/31/33 22/32/34 24/33/35 23/34/36
f 23/35/37 24/36/38 18/37/39 17/38/40
f 18/39/41 24/40/42 22/41/43 20/42/44
f 23/43/45 17/44/46 19/45/47 21/46/48
v -52.339887 -12.219758 19.452634
v 56.161037 -12.219758 19.452634
v -52.339887 -4.155166 19.452634
v 56.161037 -4.155166 19.452634
v -52.339887 -4.155166 -115.974566
v -52.339887 -12.219758 -115.974566
v 56.161037 -12.219758 -115.974566
vt 0.375000 0.000000
vt 0.625000 0.000000
vt 0.375000 0.250000
vt 0.625000 0.250000
vt 0.375000 0.750000
vt 0.625000 0.750000
vt 0.375000 1.000000
vt 0.625000 1.000000
vt 0.125000 0.000000
vt 0.125000 0.250000
vn 0.000000 0.000000 1.000000
vn 0.000000 0.000000 1.000000
vn 0.000000 0.000000 1.000000
vn 0.000000 0.000000 1.000000
vn 0.000000 -1.000000 0.000000
vn 0.000000 -1.000000 0.000000
vn 0.000000 -1.000000 0.000000
vn 0.000000 -1.000000 0.000000
vn -1.000000 0.000000 0.000000
vn -1.000000 0.000000 0.000000
vn -1.000000 0.000000 0.000000
vn -1.000000 0.000000 0.000000
g pCube5
usemtl lambert2SG
f 25/47/49 26/48/50 28/50/51 27/49/52
f 30/51/53 31/52/54 26/54/55 25/53/56
f 30/55/57 25/47/58 27/49/59 29/56/60
v -52.339887 38.781507 19.452634
v 56.161037 38.781507 19.452634
v -52.339887 46.846100 19.452634
v 56.161037 46.846100 19.452634
v -52.339887 46.846100 -115.974566
v 56.161037 46.846100 -115.974566
v -52.339887 38.781507 -115.974566
v 56.161037 38.781507 -115.974566
vt 0.375000 0.000000
vt 0.625000 0.000000
vt 0.375000 0.250000
vt 0.625000 0.250000
vt 0.375000 0.500000
vt 0.625000 0.500000
vt 0.375000 0.750000
vt 0.625000 0.750000
vt 0.375000 1.000000
vt 0.625000 1.000000
vt 0.875000 0.000000
vt 0.875000 0.250000
vt 0.125000 0.000000
vt 0.125000 0.250000
vn 0.000000 0.000000 1.000000
vn 0.000000 0.000000 1.000000
vn 0.000000 0.000000 1.000000
vn 0.000000 0.000000 1.000000
vn 0.000000 1.000000 0.000000
vn 0.000000 1.000000 0.000000
vn 0.000000 1.000000 0.000000
vn 0.000000 1.000000 0.000000
vn 0.000000 0.000000 -1.000000
vn 0.000000 0.000000 -1.000000
vn 0.000000 0.000000 -1.000000
vn 0.000000 0.000000 -1.000000
vn 0.000000 -1.000000 0.000000
vn 0.000000 -1.000000 0.000000
vn 0.000000 -1.000000 0.000000
vn 0.000000 -1.000000 0.000000
vn 1.000000 0.000000 0.000000
vn 1.000000 0.000000 0.000000
vn 1.000000 0.000000 0.000000
vn 1.000000 0.000000 0.000000
vn -1.000000 0.000000 0.000000
vn -1.000000 0.000000 0.000000
vn -1.000000 0.000000 0.000000
vn -1.000000 0.000000 0.000000
g pCube6
usemtl lambert2SG
f 32/57/61 33/58/62 35/60/63 34/59/64
f 34/59/65 35/60/66 37/62/67 36/61/68
f 36/61/69 37/62/70 39/64/71 38/63/72
f 38/63/73 39/64/74 33/66/75 32/65/76
f 33/58/77 39/67/78 37/68/79 35/60/80
f 38/69/81 32/57/82 34/59/83 36/70/84
v 53.089945 -12.614978 19.452634
v 64.853791 -12.614978 19.452634
v 53.089945 41.484891 19.452634
v 64.853791 41.484891 19.452634
v 53.089945 41.484891 -115.974566
v 64.853791 41.484891 -115.974566
v 53.089945 -12.614978 -115.974566
v 64.853791 -12.614978 -115.974566
vt 4.515281 -3.949586
vt 5.280736 -3.949586
vt 5.280736 -0.429393
vt 4.515281 -0.429393
vt -4.326594 -3.949585
vt -3.561140 -3.949585
vt -3.561140 4.862449
vt -4.326594 4.862449
vt 4.561140 -0.390710
vt 5.326594 -0.390710
vt 5.326594 3.129483
vt 4.561140 3.129483
vt -3.493596 -3.949586
vt -2.728141 -3.949586
vt -2.728141 4.862448
vt -3.493596 4.862448
vt -2.662485 4.862448
vt -2.662485 -3.949586
vt 0.857707 -3.949586
vt 0.857707 4.862448
vt 0.926398 4.862448
vt 0.926398 -3.949586
vt 4.446591 -3.949586
vt 4.446591 4.862448
vn 0.000000 0.000000 1.000000
vn 0.000000 0.000000 1.000000
vn 0.000000 0.000000 1.000000
vn 0.000000 0.000000 1.000000
vn 0.000000 1.000000 0.000000
vn 0.000000 1.000000 0.000000
vn 0.000000 1.000000 0.000000
vn 0.000000 1.000000 0.000000
vn 0.000000 0.000000 -1.000000
vn 0.000000 0.000000 -1.000000
vn 0.000000 0.000000 -1.000000
vn 0.000000 0.000000 -1.000000
vn 0.000000 -1.000000 0.000000
vn 0.000000 -1.000000 0.000000
vn 0.000000 -1.000000 0.000000
vn 0.000000 -1.000000 0.000000
vn 1.000000 0.000000 0.000000
vn 1.000000 0.000000 0.000000
vn 1.000000 0.000000 0.000000
vn 1.000000 0.000000 0.000000
vn -1.000000 0.000000 0.000000
vn -1.000000 0.000000 0.000000
vn -1.000000 0.000000 0.000000
vn -1.000000 0.000000 0.000000
g pCube7
usemtl lambert4SG
f 40/71/85 41/72/86 43/73/87 42/74/88
f 42/75/89 43/76/90 45/77/91 44/78/92
f 44/79/93 45/80/94 47/81/95 46/82/96
f 46/83/97 47/84/98 41/85/99 40/86/100
f 41/87/101 47/88/102 45/89/103 43/90/104
f 46/91/105 40/92/106 42/93/107 44/94/108
v -55.828070 -12.614978 18.511208
v -55.828070 -12.614978 30.275053
v -55.828070 41.484891 18.511208
v -55.828070 41.484891 30.275053
v 79.599130 41.484891 18.511208
v 79.599130 41.484891 30.275053
v 79.599130 -12.614978 18.511208
v 79.599130 -12.614978 30.275053
vt 4.515281 -3.949586
vt 5.280736 -3.949586
vt 5.280736 -0.429393
vt 4.515281 -0.429393
vt -4.326594 -3.949585
vt -3.561140 -3.949585
vt -3.561140 4.862449
vt -4.326594 4.862449
vt 4.561140 -0.390710
vt 5.326594 -0.390710
vt 5.326594 3.129483
vt 4.561140 3.129483
vt -3.493596 -3.949586
vt -2.728141 -3.949586
vt -2.728141 4.862448
vt -3.493596 4.862448
vt -2.662485 4.862448
vt -2.662485 -3.949586
vt 0.857707 -3.949586
vt 0.857707 4.862448
vt 0.926398 4.862448
vt 0.926398 -3.949586
vt 4.446591 -3.949586
vt 4.446591 4.862448
vn -1.000000 0.000000 0.000000
vn -1.000000 0.000000 0.000000
vn -1.000000 0.000000 0.000000
vn -1.000000 0.000000 0.000000
vn 0.000000 1.000000 0.000000
vn 0.000000 1.000000 0.000000
vn 0.000000 1.000000 0.000000
vn 0.000000 1.000000 0.000000
vn 1.000000 0.000000 -0.000000
vn 1.000000 0.000000 -0.000000
vn 1.000000 0.000000 -0.000000
vn 1.000000 0.000000 -0.000000
vn 0.000000 -1.000000 0.000000
vn 0.000000 -1.000000 0.000000
vn 0.000000 -1.000000 0.000000
vn 0.000000 -1.000000 0.000000
vn 0.000000 0.000000 1.000000
vn 0.000000 0.000000 1.000000
vn 0.000000 0.000000 1.000000
vn 0.000000 0.000000 1.000000
vn -0.000000 0.000000 -1.000000
vn -0.000000 0.000000 -1.000000
vn -0.000000 0.000000 -1.000000
vn -0.000000 0.000000 -1.000000
g pCube8
usemtl lambert4SG
f 48/95/109 49/96/110 51/97/111 50/98/112
f 50/99/113 51/100/114 53/101/115 52/102/116
f 52/103/117 53/104/118 55/105/119 54/106/120
f 54/107/121 55/108/122 49/109/123 48/110/124
f 49/111/125 55/112/126 53/113/127 51/114/128
f 54/115/129 48/116/130 50/117/131 52/118/132
v -55.828070 -12.614978 -124.364283
v -55.828070 -12.614978 -112.600438
v -55.828070 41.484891 -124.364283
v -55.828070 41.484891 -112.600438
v 79.599130 41.484891 -124.364283
v 79.599130 41.484891 -112.600438
v 79.599130 -12.614978 -124.364283
v 79.599130 -12.614978 -112.600438
vt 4.515281 -3.949586
vt 5.280736 -3.949586
vt 5.280736 -0.429393
vt 4.515281 -0.429393
vt -4.326594 -3.949585
vt -3.561140 -3.949585
vt -3.561140 4.862449
vt -4.326594 4.862449
vt 4.561140 -0.390710
vt 5.326594 -0.390710
vt 5.326594 3.129483
vt 4.561140 3.129483
vt -3.493596 -3.949586
vt -2.728141 -3.949586
vt -2.728141 4.862448
vt -3.493596 4.862448
vt -2.662485 4.862448
vt -2.662485 -3.949586
vt 0.857707 -3.949586
vt 0.857707 4.862448
vt 0.926398 4.862448
vt 0.926398 -3.949586
vt 4.446591 -3.949586
vt 4.446591 4.862448
vn -1.000000 0.000000 0.000000
vn -1.000000 0.000000 0.000000
vn -1.000000 0.000000 0.000000
vn -1.000000 0.000000 0.000000
vn 0.000000 1.000000 0.000000
vn 0.000000 1.000000 0.000000
vn 0.000000 1.000000 0.000000
vn 0.000000 1.000000 0.000000
vn 1.000000 0.000000 -0.000000
vn 1.000000 0.000000 -0.000000
vn 1.000000 0.000000 -0.000000
vn 1.000000 0.000000 -0.000000
vn 0.000000 -1.000000 0.000000
vn 0.000000 -1.000000 0.000000
vn 0.000000 -1.000000 0.000000
vn 0.000000 -1.000000 0.000000
vn 0.000000 0.000000 1.000000
vn 0.000000 0.000000 1.000000
vn 0.000000 0.000000 1.000000
vn 0.000000 0.000000 1.000000
vn -0.000000 0.000000 -1.000000
vn -0.000000 0.000000 -1.000000
vn -0.000000 0.000000 -1.000000
vn -0.000000 0.000000 -1.000000
g pCube9
usemtl lambert4SG
f 56/119/133 57/120/134 59/121/135 58/122/136
f 58/123/137 59/124/138 61/125/139 60/126/140
f 60/127/141 61/128/142 63/129/143 62/130/144
f 62/131/145 63/132/146 57/133/147 56/134/148
f 57/135/149 63/136/150 61/137/151 59/138/152
f 62/139/153 56/140/154 58/141/155 60/142/156
